<?xml version="1.0" encoding="UTF-8"?>
<!DOCTYPE svg PUBLIC "-//W3C//DTD SVG 1.1//EN" "http://www.w3.org/Graphics/SVG/1.1/DTD/svg11.dtd">
<!-- Creator: CorelDRAW -->
<svg xmlns="http://www.w3.org/2000/svg" xml:space="preserve" width="11.694in" height="8.268in" version="1.1" style="shape-rendering:geometricPrecision; text-rendering:geometricPrecision; image-rendering:optimizeQuality; fill-rule:evenodd; clip-rule:evenodd"
viewBox="0 0 11694 8268"
 xmlns:xlink="http://www.w3.org/1999/xlink"
 xmlns:xodm="http://www.corel.com/coreldraw/odm/2003">
 <defs>
  <style type="text/css">
   <![CDATA[
    .fil0 {fill:#FEFEFE}
   ]]>
  </style>
 </defs>
 <g id="Layer_x0020_1">
  <metadata id="CorelCorpID_0Corel-Layer"/>
  <path class="fil0" d="M2322.91 1354.61c-189.37,-20.6 -503.94,-10.3 -560.98,-12.68 -42.79,-19.81 -114.89,-74.48 -128.36,-110.93 3.96,-1.59 7.93,-3.17 12.68,-3.96 41.2,26.94 82.41,54.67 123.61,82.41 225.03,3.96 450.85,7.93 676.67,12.68 -2.38,-7.92 -4.76,-15.85 -6.34,-23.77 -133.91,0.8 -333.58,-5.54 -400.93,1.59 -55.46,0.79 -152.93,0.79 -228.2,0.79 -73.69,-18.22 -133.12,-59.43 -168.77,-114.89 3.17,-3.96 6.34,-7.93 9.51,-11.09 44.37,30.9 89.54,61.8 134.7,93.5 217.1,3.96 434.2,7.92 652.1,12.68 -15.85,-42.79 -129.94,-129.94 -156.89,-145 -214.72,-3.96 -429.45,-7.93 -643.39,-11.89 0,-5.55 0,-11.09 0,-16.64 24.56,-4.75 24.56,-4.75 552.27,0 1.58,-11.88 3.96,-23.77 6.34,-35.65 -150.55,-2.38 -301.09,-3.96 -451.64,-5.55 -4.75,7.93 -7.92,22.19 -11.89,30.9 -3.17,0 -1.58,0 -6.34,0 -2.37,-6.34 -3.17,-28.52 -4.75,-33.28 -20.6,-4.75 -41.2,-8.71 -61.8,-12.68 -3.96,-115.68 -7.13,-232.16 -10.3,-347.84 7.93,-197.29 7.93,-197.29 3.96,-226.61 -8.72,3.96 -16.64,7.93 -24.56,12.68 13.47,-134.7 591.09,-63.39 719.45,-35.65 3.17,6.34 7.13,12.68 11.09,19.02 0,185.41 -4.76,371.61 -16.64,560.19 -26.94,45.17 -82.41,31.7 -127.57,33.28 -4.76,32.49 -4.76,32.49 -15.06,42.79 122.02,11.89 197.3,91.12 256.72,155.3 3.17,30.9 5.55,42.79 5.55,73.69 -18.22,11.89 -63.39,11.89 -140.24,16.64zm-49.13 -305.06c-195.71,-25.35 -394.59,-15.06 -586.34,-16.64 -5.54,-186.99 -10.3,-374.78 -15.05,-562.57 4.75,-3.96 9.51,-7.13 15.05,-10.3 218.69,-42.79 425.49,-10.3 644.98,10.3 2.37,109.34 2.37,109.34 -24.56,572.87 -11.89,1.58 -22.98,3.96 -34.07,6.34z"/>
  <path class="fil0" d="M1800.45 1261.63c-10.37,-2.79 -24.73,-9.77 -24.73,-18.85 0.8,-10.47 10.37,-12.56 43.09,-5.58 6.38,1.4 3.99,13.26 0,18.15 -3.19,4.89 -11.97,7.68 -18.35,6.28z"/>
  <path class="fil0" d="M1856.71 1260.85c-8.33,-3.93 -9.09,-18.33 -2.27,-22.91 8.33,-5.89 23.48,-4.58 34.84,0 5.3,2.62 5.3,13.09 0,17.02 -9.09,6.54 -23.48,10.47 -32.57,5.89z"/>
  <path class="fil0" d="M1925.47 1261.05c-6.15,-3.36 -7.27,-16.22 -1.68,-19.57 8.95,-5.59 22.37,-5.04 31.88,0 5.03,2.8 10.07,15.66 4.47,19.57 -10.07,6.71 -25.17,5.59 -34.67,0z"/>
  <path class="fil0" d="M1981.31 1258.87c-6.44,-2.93 -2.34,-17.58 4.1,-20.51 10.55,-4.69 24.02,-2.93 35.16,1.76 5.86,2.93 15.82,15.24 9.37,18.75 -15.23,7.62 -34.57,7.03 -48.63,0z"/>
  <path class="fil0" d="M2059.56 1262.03c-8.04,-3.41 -7.42,-19.33 0,-23.88 10.51,-6.82 27.2,-5.69 38.94,0 5.56,2.84 6.8,15.35 1.24,18.76 -11.74,6.82 -29.05,10.8 -40.18,5.12z"/>
  <path class="fil0" d="M2136.3 1259.68c-4.62,-0.58 -10.39,-2.89 -11.55,-6.35 -2.89,-5.77 -5.77,-15.59 0,-17.89 12.7,-5.2 29.44,-6.93 42.14,0 6.93,4.04 6.35,19.05 0,24.24 -8.66,6.35 -21.36,1.73 -30.59,0z"/>
  <path class="fil0" d="M2189.7 1262.64c-7.28,-3.97 -2.65,-19.85 4.63,-23.15 10.59,-5.3 26.46,-5.3 37.71,0 6.61,3.31 12.57,19.19 5.95,23.15 -14.56,7.94 -34.4,7.28 -48.3,0z"/>
  <path class="fil0" d="M2268.59 1262.48c-7.22,-3.94 -8.54,-19.05 -1.97,-22.99 10.51,-6.57 26.28,-5.26 37.44,0 6.57,3.28 12.48,18.39 5.91,22.99 -11.82,7.88 -29.56,6.57 -41.38,0z"/>
  <path class="fil0" d="M2333.35 1263.44c-7.69,-4.19 -1.4,-20.26 5.59,-24.45 8.39,-5.59 23.06,-5.59 32.84,0 6.29,4.19 12.57,19.56 5.59,24.45 -12.57,8.38 -32.14,7.69 -44.01,0z"/>
  <path class="fil0" d="M1406.95 390.31c32.48,0 65.76,0 99.04,0 38.03,5.55 76.86,11.09 115.68,16.64 1.59,271.78 13.47,542.76 -7.13,817.71 -50.71,37.24 -193.33,20.6 -219.48,17.43 -41.2,-33.28 -91.91,-34.86 -124.4,-118.06 -4.75,-122.02 -8.71,-202.84 -11.09,-267.02 -4.76,-130.74 -5.55,-184.62 -5.55,-351.01 48.33,-61.01 83.2,-84.78 152.93,-115.69zm-30.9 817.7c-29.32,-18.22 -61.01,-37.24 -72.11,-59.43 -3.96,-93.5 -8.72,-194.92 -13.47,-298.72 -4.76,-113.31 -10.3,-226.61 -14.26,-328.83 11.09,-23.77 24.56,-62.59 95.08,-83.99 2.38,158.47 9.51,267.02 4.76,514.24 -15.85,103 -11.89,223.44 0,256.72zm30.11 11.09c-27.73,-47.54 -12.68,-155.3 -11.09,-247.21 11.09,-526.12 0.79,-518.99 3.96,-549.1 14.26,-19.02 166.39,-2.38 206.01,8.71 -4.76,32.49 -4.76,560.19 -15.06,784.43 -55.46,2.37 -128.36,0.79 -183.83,3.17z"/>
  <path class="fil0" d="M1777.12 1219.53c-9.46,-3.38 -5.41,-18.24 3.38,-22.98 4.06,-2.03 44.6,-7.43 47.98,10.14 4.06,19.59 -33.79,19.59 -51.35,12.84z"/>
  <path class="fil0" d="M1856.06 1220.43c-6.89,-4.39 -7.52,-17.54 -1.88,-21.93 6.89,-5.64 19.42,-3.13 29.44,0 10.65,3.76 15.66,16.91 5.01,21.93 -10.65,4.39 -23.8,5.64 -32.57,0z"/>
  <path class="fil0" d="M1914.73 1220.8c-7.02,-3.19 -1.91,-19.13 5.1,-22.32 10.2,-5.1 24.87,-4.46 36.35,0 4.46,1.91 4.46,14.03 0,16.58 -12.76,7.02 -29.34,11.48 -41.46,5.74z"/>
  <path class="fil0" d="M1989.48 1221.51c-6.91,-4.02 -6.28,-17.22 0,-21.24 16.33,-10.91 21.98,-12.05 38.93,-2.87 6.91,4.02 6.91,19.52 0,24.11 -11.3,6.89 -28.89,6.31 -38.93,0z"/>
  <path class="fil0" d="M2068.53 1219.72c-9.45,-4.95 -10.17,-21.67 -2.18,-27.85 7.99,-6.81 25.44,-3.72 36.34,1.85 6.54,3.72 10.91,15.48 5.09,20.43 -10.18,7.43 -28.35,11.76 -39.26,5.57z"/>
  <path class="fil0" d="M2155.78 1221.71c-7.57,-1.26 -18.28,-0.63 -20.18,-6.94 -3.78,-8.2 -1.26,-22.7 6.94,-25.85 11.35,-5.04 28.37,-2.52 39.09,6.31 6.31,5.67 5.67,20.18 0,26.48 -6.3,6.31 -18.28,1.26 -25.85,0z"/>
  <path class="fil0" d="M2255.56 1213.57c-7.13,11.89 -28.53,9.51 -39.62,0.79 -7.93,-5.55 0.79,-15.06 7.13,-21.39 3.96,-3.96 49.92,-5.55 32.49,20.6z"/>
  <path class="fil0" d="M2298.93 1217.92c-10.12,-4.2 -16.35,-16.26 -8.56,-22.02 7.01,-5.77 25.69,-4.72 36.59,0 9.34,4.19 19.46,15.73 12.45,22.02 -9.34,7.34 -29.58,4.72 -40.48,0z"/>
  <path class="fil0" d="M1705.75 1174.07c-6.84,-6.58 -6.16,-18.54 3.42,-22.72 13,-4.78 24.62,-4.78 38.3,-0.59 9.57,2.99 13.68,16.74 7.52,23.91 -11.63,11.36 -38.99,8.96 -49.25,-0.6z"/>
  <path class="fil0" d="M1783.31 1172.37c-3.96,-8.72 -4.76,-21.39 3.17,-25.36 13.47,-6.34 27.73,-5.54 40.41,3.17 9.51,6.34 11.89,17.43 5.54,27.73 -5.54,7.93 -44.37,3.17 -49.12,-5.54z"/>
  <path class="fil0" d="M1855.42 1177.12c-10.3,-6.34 -12.68,-23.77 -1.59,-29.31 13.47,-7.13 24.56,-5.55 38.83,-1.59 11.09,3.17 10.3,19.02 0.79,26.94 -11.09,9.51 -25.35,11.89 -38.03,3.96z"/>
  <path class="fil0" d="M1932.31 1177.75c-8.57,-4.28 -9.79,-22.03 -1.84,-27.54 10.41,-7.96 28.76,-6.73 41.61,0 6.12,3.67 5.51,17.74 0,22.03 -11.63,7.96 -28.76,11.63 -39.78,5.51z"/>
  <path class="fil0" d="M2019.27 1177.26c-8.37,-2.39 -14.94,-10.17 -17.93,-17.94 -2.39,-4.78 0.59,-11.96 5.38,-13.15 11.96,-2.39 26.91,-3.59 38.26,4.19 5.38,4.19 4.78,16.74 0,21.52 -6.57,6.58 -17.93,7.78 -25.71,5.38z"/>
  <path class="fil0" d="M2103.18 1179.07c-8.85,-1.9 -17.07,-5.69 -21.5,-12.01 -3.79,-4.43 -5.06,-13.91 0,-16.44 11.38,-6.32 29.08,-12.01 41.09,-4.43 7.59,5.06 -0.63,18.97 -5.06,27.19 -3.16,4.43 -10.12,6.96 -14.54,5.69z"/>
  <path class="fil0" d="M2182.69 1178.42c-8.99,-1.28 -17.33,-5.78 -21.83,-12.2 -3.85,-4.5 -5.13,-14.76 0,-16.69 12.84,-5.14 29.53,-7.06 43.01,0 6.42,3.85 4.5,16.69 0,23.11 -4.49,5.78 -14.12,7.06 -21.18,5.78z"/>
  <path class="fil0" d="M2252.43 1176.74c-5.2,0 -11.55,-2.31 -12.13,-6.35 -2.31,-8.09 -1.73,-21.95 6.35,-23.68 19.06,-4.62 44.47,-2.89 42.17,23.68 -1.73,12.13 -24.26,6.35 -36.39,6.35z"/>
  <path class="fil0" d="M1423.59 1165.23c-4.76,-57.84 -4.76,-57.84 14.26,-438.96 21.39,-11.89 30.11,-12.68 95.08,-11.09 0,7.93 -0.79,14.26 -0.79,22.98 -25.35,-3.96 -50.71,-6.34 -76.07,-1.59 -3.17,137.08 -5.54,274.15 -7.92,412.02 23.77,4.75 48.33,3.96 74.48,0 3.96,-146.59 -0.79,-292.38 10.3,-433.42 4.76,0 16.64,4.76 22.19,4.76 -3.17,148.17 -5.55,296.34 -7.93,445.3 -45.96,6.34 -77.65,12.68 -123.61,0z"/>
  <path class="fil0" d="M1926.73 1016.27c-103.8,-20.6 -198.88,-17.43 -218.69,-122.81 0,-114.1 -16.64,-251.97 12.68,-354.97 16.64,-3.96 28.53,-16.64 90.33,-37.24 161.64,-22.19 318.52,-38.83 464.31,51.5 25.35,142.62 15.06,310.6 -28.52,450.06 -9.51,3.96 -87.95,13.47 -124.4,15.05 -72.11,3.17 -119.65,-0.79 -195.71,-1.58zm-109.34 -32.49c-34.87,-15.85 -47.54,-20.6 -61.01,-30.11 -56.26,-91.12 -49.92,-337.54 -11.09,-415.19 101.42,-38.83 435.8,-79.24 515.82,41.2 15.06,129.15 19.02,304.26 -38.03,404.89 -11.89,2.37 -16.64,7.13 -30.11,8.71 -97.46,12.68 -242.46,3.96 -375.57,-9.51z"/>
  <path class="fil0" d="M1440.22 670.81c-22.19,-38.03 -11.09,-157.68 -11.09,-200.46 35.65,-17.43 81.61,-7.93 125.98,-6.34 0,41.2 9.51,161.64 -14.26,199.67 -34.07,2.37 -67.35,4.75 -100.63,7.13zm15.85 -16.64c0,-61.01 -6.34,-121.23 0,-180.66 9.51,-3.17 53.88,0.79 80.82,3.96 11.09,56.26 2.37,168.77 -11.09,176.7 -4.75,4.75 -45.17,0 -69.73,0z"/>
  <path class="fil0" d="M1712 1437.01c-81.61,1.59 -118.85,14.26 -175.9,-34.07 -24.56,-21.39 -1.58,-73.69 -22.19,-99.04 -39.62,-49.13 -162.43,-5.55 -252.76,-28.52 -78.44,-19.81 -99.04,-139.45 -3.17,-139.45 2.38,2.38 5.55,5.55 8.72,8.72 -15.85,6.34 -41.2,-0.8 -48.33,26.15 -38.82,156.09 252.76,28.52 324.87,142.62 3.17,22.19 -6.34,53.09 9.51,70.52 44.37,48.33 103.8,34.86 171.94,38.83 0,0.79 -0.8,0.79 -0.8,0.79 60.22,-56.26 178.28,-38.83 252.76,-23.77 47.54,37.24 45.17,45.17 42.79,113.31 -23.77,19.81 -39.62,30.9 -67.35,42 -44.37,16.64 -267.81,0 -240.08,-118.06zm236.91 95.08c-7.13,3.17 -10.3,6.34 -15.85,5.55 -8.72,0 -6.34,-18.22 -15.06,-29.32 -33.28,-20.6 -82.4,-44.37 -106.96,-49.92 -44.37,-9.51 -81.61,-6.34 -73.69,-17.43 28.52,-38.04 66.56,-43.58 98.25,-44.37 55.46,-2.38 114.1,11.09 148.17,30.9 26.94,15.85 23.77,36.45 27.73,74.48 -5.55,8.72 -5.55,9.51 -8.72,3.96 -9.51,-17.43 -16.64,-51.5 -36.45,-61.8 -37.24,-19.02 -89.54,-24.56 -108.55,-7.93 -11.89,16.64 62.59,43.58 91.12,95.87zm11.09 -3.96c-7.93,-53.09 -80.03,-70.52 -71.31,-81.61 30.9,-8.71 101.42,3.96 99.04,71.31 -6.34,1.58 -22.19,7.92 -27.73,10.3zm-226.61 -57.05c6.34,-18.22 49.13,-3.96 92.7,10.3 28.53,9.51 61.01,20.6 83.2,35.65 4.76,3.17 7.13,22.19 7.93,28.53 -24.56,0.79 -206.8,-9.51 -183.83,-74.48z"/>
 </g>
</svg>
